<svg role="img" aria-label="FBC" xmlns="http://www.w3.org/2000/svg" width="1254" height="1254" viewBox="0 0 1254 1254" version="1.1"> <path d="M 170.417 443.135 C 170.201 443.484, 170.435 445.059, 170.937 446.635 C 171.439 448.211, 173.736 456.025, 176.041 464 C 178.346 471.975, 182.260 485.250, 184.738 493.500 C 187.217 501.750, 190.706 513.675, 192.491 520 C 194.276 526.325, 197.332 536.900, 199.283 543.500 C 206.757 568.783, 233.120 658.687, 240.483 684 C 250.085 717.008, 254.421 731.841, 258.025 744 C 259.573 749.225, 265.637 770.150, 271.501 790.500 C 277.364 810.850, 282.950 829.975, 283.914 833 L 285.666 838.500 347.333 838.758 C 407.437 839.009, 409 838.967, 409 837.107 C 409 836.057, 407.017 828.741, 404.594 820.849 C 402.170 812.957, 395.622 791.425, 390.042 773 C 384.461 754.575, 379.503 738.375, 379.024 737 C 377.959 733.948, 366.804 695.840, 366.627 694.649 C 366.557 694.181, 394.850 693.868, 429.500 693.953 C 464.150 694.038, 494.407 693.802, 496.737 693.428 C 501.685 692.635, 501.751 694.242, 495.978 675 C 493.915 668.125, 488.996 651.475, 485.047 638 C 481.098 624.525, 476.611 609.450, 475.077 604.500 C 473.542 599.550, 471.448 592.237, 470.422 588.250 L 468.557 581 406.029 580.786 C 371.638 580.668, 341.700 580.478, 339.500 580.363 C 337.300 580.248, 334.775 580.119, 333.889 580.077 C 332.817 580.026, 331.709 578.079, 330.575 574.250 C 326.008 558.841, 324.971 554.695, 325.544 554.122 C 325.886 553.780, 356.279 553.378, 393.083 553.229 C 467.802 552.927, 461.692 553.569, 458.927 546.315 C 457.720 543.149, 456.932 540.483, 440.496 484 C 434.014 461.725, 428.213 443.154, 427.605 442.732 C 426.287 441.816, 170.985 442.216, 170.417 443.135 M 457.375 443.466 C 457.089 444.210, 457.293 446.322, 457.827 448.159 C 458.362 449.997, 461.352 460.275, 464.472 471 C 471.084 493.729, 479.046 521.305, 492.477 568 C 497.777 586.425, 504.145 608.475, 506.628 617 C 514.037 642.432, 521.764 668.908, 529.541 695.500 C 532.115 704.300, 534.872 713.975, 535.669 717 C 536.466 720.025, 538.630 727.675, 540.477 734 C 542.324 740.325, 545.649 751.800, 547.864 759.500 C 550.080 767.200, 553.447 778.900, 555.348 785.500 C 557.248 792.100, 561.127 805.825, 563.967 816 C 566.808 826.175, 569.543 835.513, 570.045 836.750 L 570.957 839 695.812 839 C 764.482 839, 820.928 838.739, 821.248 838.419 C 821.567 838.100, 821.016 835.062, 820.024 831.669 C 815.644 816.699, 808.904 793.805, 803.340 775 C 801.957 770.325, 797.754 755.925, 793.999 743 C 783.580 707.131, 778.295 688.987, 773.318 672 C 754.596 608.100, 756.074 615.562, 759.356 601.500 C 765.984 573.095, 778.682 519.313, 784.501 495 C 788.121 479.875, 791.732 464.575, 792.524 461 C 793.317 457.425, 794.591 451.904, 795.356 448.731 C 796.121 445.558, 796.433 442.768, 796.050 442.531 C 793.969 441.244, 457.871 442.172, 457.375 443.466 M 823.882 444.811 C 823.397 446.086, 823 447.646, 823 448.277 C 823 448.907, 821.899 453.940, 820.554 459.462 C 815.307 480.989, 804.102 527.923, 797.028 558 C 795.411 564.875, 792.044 579.189, 789.544 589.808 C 787.045 600.428, 785 610.342, 785 611.839 C 785 613.336, 790.219 632.772, 796.598 655.031 C 802.978 677.289, 809.317 699.550, 810.686 704.500 C 812.055 709.450, 815.439 721.150, 818.207 730.500 C 820.974 739.850, 823.889 749.975, 824.685 753 C 825.480 756.025, 827.422 762.775, 829 768 C 830.578 773.225, 832.525 779.975, 833.326 783 C 834.128 786.025, 837.494 797.950, 840.807 809.500 C 844.119 821.050, 847.335 832.413, 847.953 834.750 L 849.077 839 974.039 839 C 1077.374 839, 1099 838.770, 1099 837.669 C 1099 836.240, 1087.131 799.341, 1078.520 774 C 1075.623 765.475, 1070.404 749.858, 1066.922 739.296 L 1060.591 720.093 1055.545 719.551 C 1052.770 719.253, 1028.993 719.120, 1002.706 719.255 L 954.913 719.500 954.318 717 C 953.991 715.625, 949.471 699.650, 944.275 681.500 C 939.078 663.350, 929.015 628.197, 921.913 603.383 C 914.811 578.568, 909 557.759, 909 557.139 C 909 556.317, 928.367 555.944, 980.690 555.757 L 1052.380 555.500 1064.285 521 C 1086.780 455.815, 1090.864 443.589, 1090.396 442.832 C 1090.139 442.416, 1030.266 442.168, 957.346 442.283 L 824.764 442.492 823.882 444.811 M 606 540.790 C 606 541.774, 607.291 546.837, 608.868 552.040 C 611.296 560.048, 612.765 565.184, 616.651 579.250 C 617.093 580.850, 619.050 581, 639.496 581 L 661.858 581 662.947 575.750 C 666.147 560.317, 669.659 540.405, 669.297 539.750 C 669.069 539.337, 654.734 539, 637.441 539 C 607.898 539, 606 539.108, 606 540.790 M 646.462 688.750 C 646.804 690.263, 649.457 699.600, 652.358 709.500 L 657.632 727.500 681.316 727.768 C 694.342 727.916, 705 727.846, 705 727.614 C 705 727.225, 698.653 707.079, 693.858 692.250 L 691.837 686 668.839 686 L 645.841 686 646.462 688.750"  fill="#FFFFFF" fill-rule="evenodd"/> </svg>